<?xml version="1.0" standalone="no"?>
<!DOCTYPE svg PUBLIC "-//W3C//DTD SVG 20010904//EN"
 "http://www.w3.org/TR/2001/REC-SVG-20010904/DTD/svg10.dtd">
<svg version="1.0" xmlns="http://www.w3.org/2000/svg"
 width="924.000000pt" height="924.000000pt" viewBox="0 0 924.000000 924.000000"
 preserveAspectRatio="xMidYMid meet">
<metadata>
Created by potrace 1.11, written by Peter Selinger 2001-2013
</metadata>
<g transform="translate(0.000000,924.000000) scale(0.100000,-0.100000)"
fill="#000000" stroke="none">
<path d="M4595 9162 c-2 -2 -9 -5 -17 -6 -26 -6 -48 -18 -48 -28 0 -5 -12 -23
-27 -39 -56 -61 -69 -76 -96 -112 -16 -21 -33 -35 -38 -32 -5 4 -9 1 -9 -5 0
-14 -61 -66 -73 -62 -5 1 -5 -2 -2 -8 4 -7 -2 -14 -13 -17 -11 -3 -23 -11 -26
-19 -3 -8 -10 -14 -16 -14 -5 0 -24 -13 -42 -30 -29 -28 -41 -34 -61 -31 -5 1
-6 -2 -3 -7 3 -5 -7 -15 -22 -23 -15 -8 -35 -22 -44 -32 -9 -11 -22 -16 -27
-12 -6 3 -11 1 -11 -4 0 -6 -6 -11 -14 -11 -8 0 -16 -4 -18 -8 -5 -13 -270
-142 -279 -136 -5 3 -9 0 -9 -5 0 -6 -4 -11 -9 -11 -5 0 -22 -5 -38 -12 -15
-6 -30 -12 -33 -13 -3 0 -14 -6 -25 -12 -11 -6 -28 -9 -37 -8 -10 2 -18 0 -18
-4 0 -3 -33 -17 -72 -30 -40 -12 -80 -27 -89 -31 -17 -9 -97 -34 -114 -35 -5
-1 -30 -12 -55 -25 -25 -12 -45 -22 -45 -21 0 3 -37 -9 -60 -20 -12 -6 -27
-12 -35 -13 -35 -8 -80 -29 -80 -38 0 -6 -7 -8 -15 -4 -8 3 -15 1 -15 -4 0 -4
-16 -14 -36 -20 -20 -7 -48 -18 -62 -26 -15 -8 -31 -14 -35 -14 -5 0 -23 -10
-40 -22 -18 -13 -33 -22 -35 -20 -1 1 -16 -5 -32 -13 -17 -9 -30 -12 -30 -8 0
5 -4 3 -8 -2 -14 -20 -63 -46 -74 -39 -7 4 -8 3 -4 -4 6 -11 0 -14 -20 -11 -4
0 -10 -3 -13 -8 -13 -18 -92 -63 -101 -58 -6 3 -10 2 -10 -3 0 -12 -50 -45
-67 -45 -7 0 -13 -4 -13 -8 0 -4 -17 -18 -37 -30 -21 -13 -44 -29 -51 -36 -7
-7 -19 -13 -27 -13 -7 0 -15 -4 -17 -8 -1 -5 -32 -27 -67 -50 -36 -23 -61 -42
-55 -43 5 0 -2 -5 -16 -11 -14 -6 -29 -10 -35 -9 -5 2 -7 -1 -3 -4 8 -8 -42
-52 -54 -47 -5 1 -8 -2 -8 -6 0 -4 -24 -26 -52 -47 -29 -22 -59 -48 -66 -57
-7 -10 -17 -18 -22 -18 -6 0 -23 -13 -38 -30 -16 -16 -31 -30 -34 -30 -2 0
-35 -29 -73 -65 -38 -36 -73 -65 -78 -65 -4 0 -6 -4 -2 -9 3 -5 -4 -12 -15
-16 -11 -3 -20 -9 -20 -13 0 -7 -34 -43 -87 -92 -18 -17 -33 -33 -33 -36 0 -4
-18 -24 -40 -45 -22 -22 -38 -39 -36 -39 2 0 -14 -19 -35 -42 -22 -24 -39 -47
-39 -51 0 -5 -4 -5 -10 -2 -5 3 -10 -1 -10 -9 0 -8 -6 -19 -13 -23 -6 -4 -24
-24 -39 -45 -15 -20 -35 -43 -44 -52 -8 -9 -13 -16 -10 -16 3 0 -2 -9 -11 -19
-9 -11 -21 -17 -26 -14 -6 3 -7 1 -4 -4 4 -6 -3 -21 -14 -34 -11 -13 -29 -38
-40 -56 -11 -18 -25 -33 -30 -33 -5 0 -8 -3 -7 -7 4 -14 -59 -93 -67 -85 -5 4
-6 2 -2 -3 3 -6 -14 -33 -39 -59 -24 -27 -44 -52 -44 -57 0 -5 -7 -9 -16 -9
-8 0 -13 -4 -10 -8 3 -5 -39 -53 -92 -108 -107 -110 -139 -139 -227 -208 -33
-26 -72 -57 -88 -69 -15 -12 -29 -20 -32 -17 -2 3 -11 -4 -19 -15 -9 -11 -16
-17 -16 -12 0 4 -9 -2 -20 -13 -11 -11 -27 -20 -35 -20 -8 0 -15 -4 -15 -10 0
-5 -9 -10 -19 -10 -10 0 -22 -7 -25 -16 -4 -9 -13 -14 -22 -10 -8 3 -12 2 -9
-4 5 -8 -10 -15 -17 -8 -2 2 -16 -7 -33 -18 -16 -12 -43 -24 -60 -28 -45 -10
-49 -11 -62 -19 -7 -5 -13 -5 -13 -2 0 4 -7 -1 -16 -9 -8 -9 -22 -16 -29 -16
-8 0 -17 -9 -20 -20 -4 -11 -10 -18 -15 -15 -4 3 -6 -4 -3 -15 3 -11 1 -20 -4
-20 -16 0 -5 -69 16 -98 11 -16 17 -33 13 -37 -4 -5 -2 -5 5 -1 7 4 14 -3 19
-16 4 -13 10 -25 13 -28 16 -11 50 -77 44 -83 -3 -4 -1 -7 5 -7 9 0 23 -26 27
-50 0 -3 7 -16 15 -30 8 -14 15 -27 15 -30 0 -3 9 -20 18 -37 10 -18 15 -33
12 -33 -3 0 2 -14 10 -31 9 -17 14 -33 12 -36 -3 -2 1 -19 8 -38 8 -18 11 -35
8 -39 -4 -3 -2 -6 4 -6 5 0 10 -14 11 -31 0 -17 5 -36 10 -42 4 -7 9 -25 10
-41 1 -16 6 -34 11 -40 8 -10 19 -83 25 -166 1 -14 4 -29 7 -35 3 -5 6 -48 8
-94 1 -46 6 -92 11 -101 5 -9 9 -111 8 -226 0 -115 3 -258 7 -319 4 -60 8
-128 9 -150 1 -22 5 -45 8 -50 3 -6 6 -33 6 -61 1 -56 4 -77 13 -84 4 -3 9
-36 13 -75 5 -65 12 -110 16 -110 1 0 3 -13 6 -30 6 -45 9 -59 17 -72 5 -7 6
-13 3 -13 -2 0 2 -26 10 -57 14 -53 17 -67 26 -113 2 -8 6 -19 10 -25 3 -5 7
-26 9 -45 2 -19 7 -37 11 -40 4 -3 9 -22 12 -42 2 -20 9 -45 15 -57 7 -12 9
-21 5 -21 -3 0 -1 -7 6 -15 6 -8 9 -18 6 -24 -3 -5 -1 -11 4 -13 6 -2 12 -14
14 -28 1 -14 8 -35 15 -47 6 -13 10 -23 7 -23 -5 0 14 -51 34 -95 17 -36 34
-80 35 -90 0 -5 6 -20 13 -33 7 -12 9 -22 5 -22 -4 0 -2 -4 5 -9 7 -4 14 -18
15 -29 1 -12 5 -22 9 -22 4 0 8 -4 8 -9 0 -5 7 -26 16 -47 9 -22 15 -41 14
-43 -1 -2 2 -7 7 -10 8 -6 56 -100 57 -113 1 -3 5 -10 9 -15 8 -8 31 -56 37
-78 1 -5 11 -22 21 -37 10 -14 19 -30 19 -36 0 -5 7 -15 15 -22 8 -7 12 -16 9
-21 -3 -5 0 -9 6 -9 6 0 9 -4 6 -9 -4 -5 -3 -11 2 -13 9 -3 65 -94 75 -121 3
-9 11 -17 17 -17 5 0 10 -7 10 -15 0 -9 9 -25 20 -37 10 -12 17 -24 15 -28 -3
-5 2 -10 10 -14 8 -3 15 -12 15 -21 0 -8 4 -15 8 -15 5 0 15 -12 23 -27 8 -15
21 -35 29 -44 34 -36 145 -204 142 -213 -2 -6 0 -8 4 -4 8 8 73 -89 74 -109 0
-7 3 -13 8 -13 4 0 13 -9 20 -21 11 -17 11 -20 0 -13 -7 4 -2 -6 12 -22 14
-16 28 -30 33 -32 4 -2 7 -12 7 -22 0 -10 5 -22 11 -25 6 -4 8 -13 5 -21 -3
-8 -2 -14 2 -14 7 0 44 -64 47 -80 0 -3 12 -30 27 -60 23 -50 51 -117 54 -130
0 -3 6 -18 13 -35 7 -16 14 -34 15 -40 1 -5 5 -16 9 -22 5 -7 6 -17 2 -22 -3
-5 0 -13 6 -16 5 -4 8 -13 5 -21 -3 -7 -1 -16 5 -20 6 -3 8 -12 5 -20 -3 -8
-2 -14 3 -14 4 0 9 -12 9 -27 2 -29 9 -68 13 -68 4 0 9 -55 13 -151 3 -72 10
-112 22 -135 10 -19 17 -38 16 -42 -1 -5 2 -6 8 -2 5 3 10 2 10 -3 0 -6 15
-12 33 -15 17 -3 42 -7 55 -10 14 -4 20 -2 16 4 -4 6 2 9 12 8 11 -2 25 0 31
4 7 5 23 10 35 13 13 3 34 8 48 11 14 3 32 6 40 7 9 1 20 4 25 8 6 3 33 6 60
7 28 1 69 3 92 4 22 1 39 5 37 9 -7 10 135 4 356 -16 50 -5 112 -14 150 -22
14 -3 35 -5 48 -5 12 0 22 -3 22 -8 0 -5 8 -8 18 -8 54 0 83 -4 78 -11 -2 -4
3 -8 12 -9 47 -3 72 -8 72 -16 0 -4 4 -5 10 -2 5 3 20 -1 33 -10 13 -8 31 -13
39 -10 9 4 22 0 29 -8 8 -7 20 -12 26 -10 7 3 27 -2 45 -10 65 -29 113 -44
126 -40 6 3 12 0 12 -7 0 -6 4 -8 10 -5 5 3 20 0 32 -7 13 -7 29 -11 35 -10 7
2 22 -2 34 -8 11 -7 37 -14 57 -16 20 -3 42 -10 49 -16 7 -6 13 -8 13 -6 0 5
51 -4 100 -17 14 -4 35 -7 48 -6 12 0 22 -4 22 -9 0 -5 7 -7 15 -4 8 3 20 2
27 -2 7 -4 24 -9 38 -11 59 -7 87 -12 120 -18 19 -4 52 -7 73 -7 20 0 37 -2
37 -6 0 -4 12 -7 28 -8 15 0 59 -4 97 -9 39 -4 97 -9 130 -11 89 -6 559 -6
640 0 120 9 260 23 260 27 0 2 53 7 113 11 23 2 42 6 42 10 0 5 12 8 28 8 15
-1 38 2 52 5 46 10 85 16 110 18 14 1 28 6 31 10 3 5 25 10 48 13 23 2 49 8
59 13 19 10 100 25 105 19 2 -1 10 2 18 8 8 7 30 15 49 20 44 10 42 9 63 19
10 4 20 5 24 2 3 -3 12 1 20 9 9 8 25 14 37 12 11 -2 26 2 31 9 6 7 24 15 40
17 17 2 43 8 58 15 16 6 37 11 48 11 10 0 19 4 19 9 0 6 8 10 18 9 9 0 31 3
47 7 17 3 38 7 48 8 9 1 17 4 17 8 0 4 13 7 29 7 15 -1 34 3 41 7 7 4 23 9 34
11 12 2 39 6 61 10 22 4 55 8 73 8 17 1 32 3 32 6 0 5 78 11 177 13 23 1 39 5
37 9 -5 8 177 8 191 0 10 -7 48 -10 128 -13 26 -1 47 -6 47 -11 0 -5 4 -6 10
-3 5 3 29 0 52 -6 24 -7 48 -13 53 -14 6 -1 12 -3 15 -4 3 -1 16 -5 30 -7 13
-2 27 -8 30 -12 8 -12 48 -6 90 14 53 26 70 67 75 179 5 129 22 246 38 272 4
6 9 28 12 49 2 22 9 40 15 42 6 2 8 8 5 12 -3 5 2 26 10 47 9 21 18 47 21 57
2 11 9 23 15 26 6 4 10 10 10 14 -3 21 1 36 12 48 6 7 14 22 15 33 2 11 8 22
13 23 5 2 7 7 4 12 -3 5 2 15 10 24 9 8 16 18 15 21 -1 24 3 34 20 53 12 12
18 22 16 22 -6 0 40 86 58 110 6 8 22 35 36 60 13 25 29 50 34 57 6 7 31 44
55 82 25 38 49 67 54 64 6 -3 7 -1 3 5 -4 6 1 19 12 29 10 11 28 35 41 56 12
20 27 37 32 37 6 0 8 4 5 9 -3 5 5 20 18 34 13 14 21 28 19 31 -3 3 2 8 11 12
9 3 13 10 10 15 -3 5 2 12 10 15 9 3 14 10 11 14 -3 5 2 15 10 23 8 9 15 20
15 25 0 5 9 17 20 27 11 10 20 22 20 28 0 12 71 130 83 138 5 3 8 8 6 10 -6
11 14 48 23 43 6 -4 8 -2 4 4 -3 6 0 16 7 24 7 7 14 15 15 18 5 20 29 69 33
66 2 -2 5 8 6 22 0 15 6 28 12 30 6 2 11 10 11 18 0 8 5 14 10 14 6 0 9 3 8 8
-1 4 5 23 14 42 27 55 99 224 101 235 2 6 7 17 12 25 5 8 10 21 11 30 3 23 28
84 37 91 5 3 8 9 7 13 -4 14 11 76 18 72 4 -2 8 10 9 27 1 17 6 33 10 36 5 3
9 19 11 36 2 16 7 32 12 35 5 3 11 19 14 35 2 17 5 30 6 30 3 0 11 39 17 80 3
22 9 45 14 51 5 6 11 21 13 35 3 13 5 26 6 29 1 3 3 10 4 15 1 6 6 28 11 50 5
22 8 46 7 53 -2 6 1 12 5 12 8 0 12 27 13 78 0 12 4 22 9 22 5 0 8 8 7 17 -2
9 1 37 6 62 5 25 11 62 13 81 4 41 12 85 14 85 1 0 4 25 6 55 3 63 14 196 20
255 3 22 6 155 8 295 2 140 7 269 11 285 4 17 9 57 11 90 3 60 10 108 21 155
3 14 5 37 5 53 -1 15 4 27 9 27 6 0 9 3 6 8 -9 15 42 222 55 222 6 0 8 4 5 9
-3 4 4 32 15 62 11 30 23 63 26 74 3 11 11 25 17 30 6 6 12 19 14 30 2 11 11
26 20 33 9 6 13 12 9 12 -10 0 30 77 43 85 6 4 8 11 5 16 -4 5 2 9 11 9 10 0
15 3 11 6 -3 3 5 24 19 45 13 21 24 43 24 49 0 5 4 10 8 10 10 0 9 21 -3 65
-10 37 -70 96 -90 89 -8 -4 -15 -1 -15 5 0 6 -7 8 -15 5 -8 -4 -15 -1 -15 5 0
6 -3 10 -7 9 -17 -6 -92 26 -86 35 3 6 1 7 -4 4 -12 -7 -87 26 -78 34 3 3 -1
6 -8 6 -18 0 -87 43 -87 55 0 5 -4 7 -8 4 -5 -3 -18 3 -28 12 -10 10 -27 21
-36 25 -10 3 -18 11 -18 17 0 5 -7 10 -15 10 -8 0 -15 5 -15 10 0 6 -5 10 -10
10 -16 0 -165 131 -162 142 1 5 -2 7 -7 4 -12 -8 -33 18 -23 29 4 5 2 5 -4 2
-12 -7 -204 190 -204 209 0 3 -11 15 -25 26 -14 11 -25 24 -25 29 0 5 -8 17
-17 28 -29 30 -78 96 -76 101 1 3 -5 9 -13 13 -8 4 -14 14 -14 21 0 8 -7 16
-15 20 -8 3 -15 12 -15 21 0 8 -5 15 -12 15 -6 0 -9 3 -6 6 4 3 -7 18 -23 33
-16 15 -26 31 -22 34 3 4 2 7 -4 7 -5 0 -36 34 -69 76 -61 79 -100 123 -209
236 -35 36 -61 69 -58 72 4 3 0 6 -8 6 -8 0 -23 13 -34 29 -10 17 -30 35 -43
41 -14 6 -22 14 -18 17 3 3 -4 11 -17 18 -12 6 -21 17 -19 24 1 7 -2 10 -7 7
-5 -3 -25 12 -45 34 -20 22 -36 38 -36 35 0 -3 -14 8 -31 25 -18 16 -36 30
-40 30 -5 0 -9 8 -9 17 0 9 -3 13 -7 10 -5 -5 -99 66 -123 93 -3 3 -21 17 -40
30 -19 13 -40 29 -46 35 -11 10 -62 46 -169 119 -27 19 -70 47 -95 62 -25 15
-64 40 -87 55 -23 16 -45 29 -50 29 -5 0 -19 9 -31 20 -12 11 -25 21 -29 21
-15 2 -88 42 -94 51 -3 5 -9 9 -13 8 -13 -3 -96 42 -96 51 0 6 -5 7 -11 4 -5
-4 -18 0 -27 8 -9 9 -20 16 -25 16 -15 0 -86 35 -82 40 1 3 -8 7 -22 7 -13 1
-33 10 -44 20 -10 9 -19 14 -19 10 0 -4 -12 -1 -27 8 -59 31 -129 60 -140 57
-7 -1 -13 3 -13 9 0 6 -4 9 -9 5 -5 -3 -12 -1 -16 4 -3 6 -12 8 -19 5 -7 -3
-20 1 -27 8 -14 12 -21 15 -59 23 -8 2 -28 9 -45 16 -38 16 -53 20 -92 26 -18
3 -31 8 -29 12 3 4 -7 8 -22 9 -15 1 -29 7 -30 12 -2 6 -21 13 -43 16 -21 4
-39 11 -39 16 0 5 -4 7 -10 3 -5 -3 -17 -1 -27 5 -28 16 -136 63 -153 66 -8 2
-16 8 -18 14 -2 5 -8 7 -13 4 -6 -3 -19 2 -31 13 -11 10 -22 17 -24 16 -9 -5
-74 28 -74 38 0 5 -5 7 -11 4 -6 -4 -20 1 -32 12 -12 10 -39 28 -59 38 -21 11
-38 23 -38 28 0 4 -3 6 -7 4 -12 -7 -113 69 -105 78 4 5 2 5 -4 2 -6 -3 -33
12 -60 34 -91 75 -175 151 -170 156 2 3 -12 20 -33 38 -20 19 -43 46 -51 61
-20 38 -47 64 -65 64 -8 0 -15 4 -15 8 0 7 -58 11 -65 4z"/>
</g>
</svg>
